<svg xmlns="http://www.w3.org/2000/svg" viewBox="0 0 800 420" role="img" aria-labelledby="title desc">
  <title id="title">Ilustración de seguridad electrónica</title>
  <desc id="desc">Cámara de monitoreo, escudo de protección, ondas de cobertura y dispositivos conectados.</desc>
  <defs>
    <linearGradient id="cam" x1="0" y1="0" x2="1" y2="1"><stop stop-color="#c4d8e8"/><stop offset="1" stop-color="#8eafd0"/></linearGradient>
    <linearGradient id="lens" x1="0" y1="0" x2="1" y2="1"><stop stop-color="#628bb4"/><stop offset="1" stop-color="#365f8a"/></linearGradient>
  </defs>
  <g fill="none" stroke="#7397bb" stroke-width="2" stroke-linecap="round" opacity=".64">
    <path d="M154 108h76c28 0 32 24 52 24h34"/><path d="M154 304h69c32 0 34-27 59-27h31"/>
    <path d="M646 108h-52c-26 0-29 24-54 24h-23"/><path d="M646 304h-58c-26 0-30-27-52-27h-27"/>
  </g>
  <g fill="#739fc5" opacity=".34"><circle cx="201" cy="108" r="4"/><circle cx="599" cy="108" r="4"/><circle cx="204" cy="304" r="4"/><circle cx="596" cy="304" r="4"/><circle cx="688" cy="209" r="3"/><circle cx="112" cy="209" r="3"/></g>
  <g stroke="#6288ad" stroke-width="2.2" stroke-linecap="round" stroke-linejoin="round">
    <g transform="translate(80 68)"><rect width="82" height="82" rx="18" fill="#c7dbea" fill-opacity=".62"/><path d="M20 47l21-22 21 22v18H20zM32 65V49h18v16" fill="none"/></g>
    <g transform="translate(80 264)"><rect width="82" height="82" rx="18" fill="#c7dbea" fill-opacity=".62"/><path d="M20 29h42v28H20z" fill="none"/><path d="M31 64h20M41 57v7" fill="none"/></g>
    <g transform="translate(638 68)"><rect width="82" height="82" rx="18" fill="#c7dbea" fill-opacity=".62"/><path d="M27 55h28l-4-8V35a10 10 0 0 0-20 0v12zM37 62h8" fill="none"/></g>
    <g transform="translate(638 264)"><rect width="82" height="82" rx="18" fill="#c7dbea" fill-opacity=".62"/><rect x="26" y="20" width="30" height="44" rx="5" fill="none"/><circle cx="41" cy="56" r="2.5" fill="#6288ad"/></g>
  </g>
  <g transform="translate(330 72)" opacity=".58" stroke="#7599bd" stroke-width="2">
    <path d="M70 0l100 42v76c0 75-43 122-100 151C13 240-30 193-30 118V42z" fill="#b6cee2" fill-opacity=".28"/>
    <path d="M70 26l73 31v57c0 55-31 91-73 114-42-23-73-59-73-114V57z" fill="#b9d1e3" fill-opacity=".22"/>
  </g>
  <g transform="translate(250 132)">
    <path d="M27 18h196c29 0 51 25 46 54l-10 52c-4 21-23 36-44 36H49C22 160 0 138 0 111V45C0 30 12 18 27 18z" fill="url(#cam)" stroke="#567da3" stroke-width="2.5"/>
    <path d="M1 53h215c25 0 43 21 39 46l-6 35" fill="none" stroke="#e8f1f6" stroke-opacity=".62" stroke-width="3"/>
    <circle cx="216" cy="89" r="57" fill="#9db9d3" stroke="#4f7399" stroke-width="3"/>
    <circle cx="216" cy="89" r="42" fill="url(#lens)"/>
    <circle cx="216" cy="89" r="24" fill="#bfd6e6" fill-opacity=".36" stroke="#dce9f1" stroke-opacity=".62"/>
    <circle cx="203" cy="76" r="9" fill="#eef5f9" fill-opacity=".72"/>
    <path d="M78 160v38h80l28-38" fill="#9ebbd3" stroke="#567da3" stroke-width="2.5"/>
    <path d="M108 198v28h-46" fill="none" stroke="#567da3" stroke-width="10" stroke-linecap="round"/>
  </g>
  <g fill="none" stroke="#668fb7" stroke-width="3" stroke-linecap="round" opacity=".62">
    <path d="M548 138c28 28 28 116 0 144"/>
    <path d="M574 116c43 44 43 166 0 210" opacity=".70"/>
    <path d="M601 92c59 60 59 214 0 274" opacity=".45"/>
  </g>
</svg>
